<svg width="26" height="32" viewBox="0 0 26 32" fill="none" xmlns="http://www.w3.org/2000/svg">
<path d="M25.0003 13.0001C25.0003 20.4897 16.6917 28.2898 13.9017 30.6989C13.6417 30.8943 13.3254 31 13.0001 31C12.6749 31 12.3586 30.8943 12.0986 30.6989C9.3086 28.2898 1 20.4897 1 13.0001C1 9.81751 2.2643 6.76523 4.51476 4.51476C6.76523 2.2643 9.81751 1 13.0001 1C16.1828 1 19.2351 2.2643 21.4855 4.51476C23.736 6.76523 25.0003 9.81751 25.0003 13.0001Z" stroke="#199AAB" stroke-width="2" stroke-linecap="round" stroke-linejoin="round"/>
<path d="M13.0001 17.5006C15.4854 17.5006 17.5002 15.4859 17.5002 13.0005C17.5002 10.5152 15.4854 8.50049 13.0001 8.50049C10.5148 8.50049 8.50006 10.5152 8.50006 13.0005C8.50006 15.4859 10.5148 17.5006 13.0001 17.5006Z" stroke="#199AAB" stroke-width="2" stroke-linecap="round" stroke-linejoin="round"/>
</svg>
