<svg width="28" height="27" viewBox="0 0 28 27" fill="none" xmlns="http://www.w3.org/2000/svg">
<path d="M26.5 19.6501V23.4001C26.5014 23.7482 26.4301 24.0928 26.2906 24.4118C26.1512 24.7308 25.9466 25.0171 25.6901 25.2525C25.4336 25.4878 25.1307 25.667 24.8009 25.7785C24.4712 25.89 24.1217 25.9315 23.775 25.9001C19.9286 25.4822 16.2338 24.1678 12.9875 22.0626C9.96729 20.1435 7.40668 17.5828 5.48751 14.5626C3.37498 11.3016 2.06031 7.58886 1.65001 3.72512C1.61877 3.37945 1.65985 3.03107 1.77063 2.70215C1.88142 2.37323 2.05947 2.07098 2.29347 1.81465C2.52746 1.55831 2.81226 1.35351 3.12975 1.21327C3.44723 1.07304 3.79043 1.00045 4.13751 1.00012H7.88751C8.49414 0.994151 9.08225 1.20897 9.54221 1.60454C10.0022 2.0001 10.3026 2.54943 10.3875 3.15012C10.5458 4.3502 10.8393 5.52853 11.2625 6.66262C11.4307 7.11003 11.4671 7.59626 11.3674 8.06372C11.2677 8.53118 11.0361 8.96026 10.7 9.30012L9.11251 10.8876C10.892 14.0171 13.4831 16.6082 16.6125 18.3876L18.2 16.8001C18.5399 16.464 18.969 16.2324 19.4364 16.1327C19.9039 16.033 20.3901 16.0694 20.8375 16.2376C21.9716 16.6608 23.1499 16.9543 24.35 17.1126C24.9572 17.1983 25.5118 17.5041 25.9082 17.972C26.3046 18.4398 26.5152 19.0371 26.5 19.6501Z" stroke="#199AAB" stroke-width="2" stroke-linecap="round" stroke-linejoin="round"/>
</svg>
