<svg xmlns="http://www.w3.org/2000/svg" width="151" height="57" viewBox="0 0 151 57">
    <g fill="#F65c00" fill-rule="evenodd">
        <path d="M60.798 42.028l3.524 4.99c-2.335 2.347-10.513 9.71-22.788 9.71-17.291 0-18.379-12.738-35.599-12.738H.892L0 38.81l19.442-19.787H4.366l1.165-6.08h24.7l-1.067 5.57L10.291 37.74c14.472 0 18.046 13.028 32.247 13.028 8.658 0 15.751-6.045 18.26-8.74"/>
        <path d="M43.643 38.956c-3.77 0-6.07-2.996-6.07-7.267 0-5.801 3.45-13.709 9.39-13.709 4.537 0 5.942 3.954 5.942 7.141 0 6.185-3.705 13.835-9.262 13.835zm4.216-26.714c-10.604 0-17.95 9.118-17.95 19.638 0 7.397 4.854 12.816 12.711 12.816 10.604 0 18.015-9.054 18.015-19.575 0-6.885-4.408-12.88-12.776-12.88zM80.977 17.79c2.364 0 3.96 1.211 3.96 3.188v.063c0 3.698-4.919 4.782-12.583 4.655.893-3.762 3.96-7.906 8.623-7.906zm10.987 3.188c0-5.165-3.896-8.736-10.03-8.736-10.731 0-17.63 10.203-17.63 19.575 0 7.586 4.153 12.88 12.776 12.88 3.769 0 7.922-.896 10.988-2.489l-.703-5.418c-2.235 1.147-5.046 2.04-8.56 2.04-2.938 0-5.174-1.084-6.388-3.188-.702-1.211-.958-3.316-.83-4.4 12.009.255 20.377-2.294 20.377-10.264zM143.27 17.79c2.556 0 4.664.765 5.814 1.401L151 13.837c-1.406-.83-4.089-1.595-7.345-1.595-7.347 0-12.585 4.208-12.585 10.203 0 3.57 2.555 6.183 6.132 8.096 3.066 1.594 4.089 2.805 4.089 4.782 0 2.04-1.789 3.763-4.79 3.826-2.811 0-5.878-1.212-7.475-2.104L127.11 42.4c1.66 1.211 5.046 2.233 8.687 2.296 7.475 0 13.224-3.826 13.224-10.649 0-3.953-3.067-6.503-6.452-8.35-2.618-1.34-4.025-2.551-4.025-4.274 0-2.103 1.916-3.633 4.728-3.633M121.432 4.527c0-2.677 2.044-4.527 4.473-4.527 2.3 0 3.96 1.66 3.96 4.018-.065 2.741-2.108 4.463-4.599 4.463h-.064c-2.236 0-3.77-1.658-3.77-3.954M114.46 43.995h7.409l5.94-31.05h-7.41l-5.94 31.05M106.54 38.754c-2.197 0-3.335-1.356-2.774-4.128l3.153-15.943h6.972l1.151-5.739h-7.032l1.54-7.969-7.687 2.231-1.146 5.738h-4.366l-1.095 5.74h4.37l-3.223 16.4c-1.142 5.904 1.853 9.612 8.645 9.612 1.564 0 3.253-.362 4.875-.76l.243-5.77c-1.231.31-2.438.588-3.625.588"/>
    </g>
</svg>
